<svg id="Layer_1" data-name="Layer 1" xmlns="http://www.w3.org/2000/svg" viewBox="0 0 24.11 6.59"><defs><style>.cls-1{fill:#131313;}</style></defs><path class="cls-1" d="M0,.58H.41V.84h0A.64.64,0,0,1,1,.53a.59.59,0,0,1,.57.33h0A.75.75,0,0,1,2.2.53a.6.6,0,0,1,.63.68V2.6h-.4V1.24A.35.35,0,0,0,2.05.85c-.27,0-.43.2-.43.57V2.6H1.23V1.24A.36.36,0,0,0,.85.85c-.28,0-.43.2-.43.57V2.6H0Z"/><path class="cls-1" d="M3,3V2.71a.69.69,0,0,0,.2,0,.38.38,0,0,0,.37-.27L2.78.58H3.2L3.7,2h0L4.18.58h.41l-.71,2a.69.69,0,0,1-.66.53Z"/><path class="cls-1" d="M4.53,1.41H5.62v.36H4.53Z"/><path class="cls-1" d="M5.81.58H6.2V.89h0A.61.61,0,0,1,6.79.53c.49,0,.82.42.82,1.06s-.33,1.05-.82,1.05a.57.57,0,0,1-.57-.36h0V3h-.4Zm1.39,1c0-.44-.2-.74-.5-.74s-.5.3-.5.74.2.74.5.74S7.2,2,7.2,1.59Z"/><path class="cls-1" d="M7.72.58h.39V1h0A.56.56,0,0,1,8.68.55h.14V1l-.16,0c-.35,0-.54.25-.54.7v1h-.4Z"/><path class="cls-1" d="M8.7,1.59a.92.92,0,1,1,1.82,0,.92.92,0,1,1-1.82,0Zm1.41,0c0-.44-.2-.74-.5-.74s-.5.3-.5.74.2.74.5.74S10.11,2,10.11,1.59Z"/><path class="cls-1" d="M10.57,2.57l.37-.15a.46.46,0,0,0,.48.35c.3,0,.49-.15.49-.43V2h0a.6.6,0,0,1-.56.31.8.8,0,0,1-.77-.9.81.81,0,0,1,.77-.91.62.62,0,0,1,.57.31h0V.58h.39V2.35c0,.45-.36.73-.89.73A.84.84,0,0,1,10.57,2.57Zm1.35-1.13c0-.36-.2-.59-.47-.59s-.47.23-.47.59.19.58.47.58S11.92,1.79,11.92,1.44Z"/><path class="cls-1" d="M12.5.58h.39V1h0a.57.57,0,0,1,.57-.44h.14V1l-.16,0c-.35,0-.55.25-.55.7v1h-.4Z"/><path class="cls-1" d="M13.48,1.6A1,1,0,0,1,14.43.53c.56,0,.9.42.9,1.15v0H13.89c0,.39.27.62.57.62a.52.52,0,0,0,.5-.4l.34.16a.86.86,0,0,1-.85.55A1,1,0,0,1,13.48,1.6Zm1.44-.19c0-.34-.22-.57-.5-.57s-.47.24-.53.57Z"/><path class="cls-1" d="M15.34,2l.38-.09a.42.42,0,0,0,.46.41c.24,0,.39-.11.39-.28s-.09-.23-.28-.27L16,1.72c-.39-.09-.57-.29-.57-.58s.32-.61.77-.61a.76.76,0,0,1,.81.61l-.39.08a.39.39,0,0,0-.43-.38c-.22,0-.37.11-.37.26s.1.23.32.27l.31.07c.39.08.56.29.56.58s-.32.62-.79.62A.77.77,0,0,1,15.34,2Z"/><path class="cls-1" d="M17,2l.38-.09a.43.43,0,0,0,.46.41c.24,0,.39-.11.39-.28s-.09-.23-.28-.27l-.34-.07c-.39-.09-.57-.29-.57-.58s.32-.61.77-.61a.76.76,0,0,1,.81.61l-.39.08a.39.39,0,0,0-.43-.38c-.22,0-.37.11-.37.26s.11.23.32.27l.31.07c.39.08.56.29.56.58s-.32.62-.78.62A.77.77,0,0,1,17,2Z"/><path class="cls-1" d="M18.7,1.41h1.09v.36H18.7Z"/><path class="cls-1" d="M20,0h.39V2.6H20Z"/><path class="cls-1" d="M20.49,1.59a.92.92,0,1,1,1.83,0,.92.92,0,1,1-1.83,0Zm1.41,0c0-.44-.2-.74-.5-.74s-.49.3-.49.74.19.74.49.74S21.9,2,21.9,1.59Z"/><path class="cls-1" d="M22.37,2.57l.36-.15a.46.46,0,0,0,.49.35c.3,0,.48-.15.48-.43V2h0a.61.61,0,0,1-.56.31.8.8,0,0,1-.78-.9.81.81,0,0,1,.78-.91.62.62,0,0,1,.57.31h0V.58h.39V2.35c0,.45-.36.73-.88.73A.82.82,0,0,1,22.37,2.57Zm1.34-1.13c0-.36-.19-.59-.46-.59s-.48.23-.48.59.2.58.48.58S23.71,1.79,23.71,1.44Z"/><path class="cls-1" d="M11.39,5.62h.47v.49h-.47Z"/><path class="cls-1" d="M12,6.07l.37-.15a.46.46,0,0,0,.48.35c.3,0,.49-.15.49-.43V5.53h0a.58.58,0,0,1-.56.31.8.8,0,0,1-.77-.9.8.8,0,0,1,.77-.9.62.62,0,0,1,.57.31h0V4.08h.39V5.85c0,.45-.36.73-.89.73A.84.84,0,0,1,12,6.07Zm1.35-1.13c0-.35-.2-.58-.47-.58s-.47.23-.47.58.19.59.47.59S13.35,5.3,13.35,4.94Z"/><path class="cls-1" d="M13.92,3.5h.43v.36h-.43Zm0,.58h.4v2h-.4Z"/><path class="cls-1" d="M14.71,5.6V4.39h-.36V4.08h.36V3.5h.4v.58h.42v.31h-.42V5.54c0,.18.06.26.25.26l.18,0v.33l-.26,0C14.89,6.13,14.71,6,14.71,5.6Z"/><path class="cls-1" d="M15.65,3.5h.4v.84h0a.62.62,0,0,1,.58-.3.61.61,0,0,1,.65.7V6.11H16.9V4.76a.36.36,0,0,0-.4-.4c-.3,0-.45.2-.45.59V6.11h-.4Z"/><path class="cls-1" d="M17.46,5.48V4.08h.39V5.45a.36.36,0,0,0,.38.38c.27,0,.43-.21.43-.57V4.08h.4v2h-.39V5.84h0a.65.65,0,0,1-1.21-.36Z"/><path class="cls-1" d="M19.66,3.5v.9h0A.57.57,0,0,1,20.24,4c.49,0,.82.41.82,1s-.33,1.06-.82,1.06a.6.6,0,0,1-.58-.36h0v.32h-.39V3.5Zm0,1.59c0,.44.2.74.5.74s.5-.3.5-.74-.2-.73-.5-.73S19.65,4.65,19.65,5.09Z"/><path class="cls-1" d="M21.09,5.62h.47v.49h-.47Z"/><path class="cls-1" d="M21.75,3.5h.43v.36h-.43Zm0,.58h.4v2h-.4Z"/><path class="cls-1" d="M22.27,5.09a.92.92,0,1,1,1.82,0,.92.92,0,1,1-1.82,0Zm1.41,0c0-.44-.2-.73-.5-.73s-.5.29-.5.73.2.74.5.74S23.68,5.53,23.68,5.09Z"/></svg>